<svg width="58" height="59" viewBox="0 0 58 59" fill="none" xmlns="http://www.w3.org/2000/svg">
<path d="M38.227 29.5L56.089 11.638C58.637 9.09 58.637 4.95898 56.089 2.41099C53.5409 -0.136997 49.4101 -0.136997 46.862 2.41099L29 20.273L11.138 2.41099C8.59 -0.136997 4.45898 -0.136997 1.91099 2.41099C-0.636997 4.95898 -0.636997 9.09 1.91099 11.638L19.773 29.5L1.91099 47.362C-0.636997 49.91 -0.636997 54.041 1.91099 56.589C3.18498 57.8629 4.8547 58.5 6.52443 58.5C8.19415 58.5 9.864 57.863 11.1379 56.589L29 38.727L46.862 56.589C48.136 57.8629 49.8057 58.5 51.4754 58.5C53.1452 58.5 54.8149 57.863 56.0889 56.589C58.6369 54.041 58.6369 49.91 56.0889 47.362L38.227 29.5Z" fill="#AEAB92"/>
</svg>
