<svg width="65" height="65" viewBox="0 0 65 65" fill="none" xmlns="http://www.w3.org/2000/svg">
<path d="M59.9222 57.2262C60.8716 57.2272 61.7847 57.5908 62.4751 58.2425C63.1654 58.8942 63.5808 59.7849 63.6365 60.7327C63.6921 61.6804 63.3838 62.6136 62.7744 63.3416C62.1651 64.0696 61.3008 64.5375 60.358 64.6496L59.9222 64.6757H33.8489C32.8995 64.6747 31.9864 64.3111 31.2961 63.6594C30.6057 63.0077 30.1903 62.117 30.1347 61.1692C30.079 60.2215 30.3874 59.2883 30.9967 58.5603C31.606 57.8323 32.4704 57.3644 33.4131 57.2523L33.8489 57.2262H59.9222ZM49.1055 2.72544C50.8114 1.02062 53.1121 0.0441077 55.5234 0.00145792C57.9347 -0.0411919 60.2686 0.853347 62.0336 2.49677C63.7987 4.1402 64.8573 6.40432 64.9866 8.81255C65.1159 11.2208 64.3059 13.5852 62.727 15.4083L62.2726 15.8925L21.6875 56.4812C21.3329 56.8363 20.9319 57.142 20.4956 57.3901L20.0486 57.6136L5.87965 64.0574C2.87004 65.4244 -0.221517 62.5042 0.795344 59.4946L0.944334 59.1221L7.38818 44.9494C7.59473 44.4936 7.86158 44.0676 8.18155 43.6829L8.51678 43.3105L49.1055 2.72544Z" fill="#795840"/>
</svg>
